<svg xmlns="http://www.w3.org/2000/svg" viewBox="580 300 1660 970" preserveAspectRatio="xMidYMid meet">

<g transform="translate(0.000000,1536.000000) scale(0.100000,-0.100000)"
fill="#000000" stroke="none">
<path d="M11405 11846 c-23 -14 -51 -43 -65 -68 l-25 -43 -3 -1660 c-3 -1844
-8 -1712 64 -1774 19 -17 60 -38 92 -46 165 -47 286 -102 388 -178 232 -175
382 -435 451 -782 28 -140 25 -483 -6 -625 -64 -297 -219 -607 -436 -870 -158
-192 -438 -447 -679 -619 -273 -194 -681 -417 -1010 -552 l-108 -44 995 -3
996 -2 183 183 c436 435 867 751 1283 940 794 361 1570 280 2375 -249 287
-188 501 -365 811 -671 l205 -203 1000 0 999 1 -110 45 c-149 61 -478 225
-655 326 -623 358 -1095 818 -1325 1293 -296 609 -227 1224 210 1880 215 324
477 604 849 908 200 165 262 211 461 342 886 587 1836 911 2885 985 167 12
212 25 262 77 29 30 278 476 312 558 20 47 21 69 21 385 0 184 -3 347 -8 362
-10 38 -65 98 -104 114 -27 12 -874 14 -5150 14 l-5118 0 -40 -24z m10015
-535 l0 -159 -77 -8 c-43 -4 -429 -4 -858 -1 -429 4 -2574 7 -4767 7 l-3988 0
0 160 0 160 4845 0 4845 0 0 -159z"/>
<path d="M10188 11530 c-56 -30 -98 -103 -98 -171 l0 -29 -1797 0 c-1718 0
-1800 -1 -1838 -19 -52 -23 -102 -81 -111 -126 -13 -74 1 -186 35 -266 40 -97
150 -266 256 -394 102 -123 391 -407 545 -536 820 -683 1835 -1141 2949 -1330
222 -37 516 -68 733 -76 l168 -6 0 1486 0 1487 -402 0 c-379 -1 -405 -2 -440
-20z m-330 -530 l232 0 -1 -597 0 -598 -89 260 c-152 442 -148 433 -179 439
-55 12 -471 80 -806 132 -192 30 -462 72 -600 94 -531 83 -1602 263 -1609 271
-3 2 631 3 1407 2 777 -1 1517 -3 1645 -3z"/>
<path d="M14285 5669 c-458 -56 -858 -236 -1335 -603 -178 -137 -307 -251
-517 -460 l-203 -200 0 -549 c0 -302 3 -547 8 -545 4 2 104 51 222 110 524
259 1003 395 1620 460 183 19 655 16 855 -6 472 -51 916 -161 1290 -318 66
-27 209 -95 319 -149 109 -54 200 -99 202 -99 2 0 4 245 4 546 l0 545 -97 101
c-154 159 -395 380 -548 502 -475 380 -875 578 -1315 651 -117 19 -397 27
-505 14z"/>
<path d="M9867 4303 c-9 -21 -13 -153 -15 -490 -3 -447 -2 -463 17 -502 25
-48 61 -78 111 -91 24 -7 383 -9 1021 -8 l984 3 3 558 2 557 -1055 0 -1055 0
-13 -27z"/>
<path d="M16992 3773 l3 -558 1005 0 c1124 0 1038 -6 1097 72 l28 36 3 451 c2
311 0 467 -8 504 l-11 52 -1060 0 -1059 0 2 -557z"/>
</g>
</svg>
